<?xml version="1.0" standalone="no"?><!DOCTYPE svg PUBLIC "-//W3C//DTD SVG 1.1//EN" "http://www.w3.org/Graphics/SVG/1.1/DTD/svg11.dtd"><svg t="1527133994455" class="icon" style="" viewBox="0 0 1024 1024" version="1.1" xmlns="http://www.w3.org/2000/svg" p-id="9356" xmlns:xlink="http://www.w3.org/1999/xlink" width="32" height="32"><defs><style type="text/css"></style></defs><path d="M639.773396 493.126016H478.732963c-8.591487 0-15.584558 6.993071-15.584558 15.584558V1006.017818c0 8.591487 6.993071 15.584558 15.584558 15.584558h161.040433c8.591487 0 15.584558-6.993071 15.584558-15.584558V508.710574c0-8.591487-6.993071-15.584558-15.584558-15.584558zM1011.405165 279.437749L856.958198 10.104618c-7.392675-12.78733-19.480698-13.78634-26.873372-0.99901L675.637859 279.937254c-7.392675 12.78733-1.298713 26.673571 13.486637 26.673571h49.550903v691.614714c0 8.591487 10.789309 23.276936 19.380796 23.276936h170.930634c8.591487 0 11.688419-14.78535 11.688418-23.276936V306.710726h57.243281c14.78535 0 20.879312-14.385746 13.486637-27.272977z" fill="#4FA8EA" p-id="9357"></path><path d="M187.821212 282.834384m-112.688342 0a112.688343 112.688343 0 1 0 225.376685 0 112.688343 112.688343 0 1 0-225.376685 0Z" fill="#4FA8EA" p-id="9358"></path><path d="M293.816187 437.581053h-37.662682l-63.13744 110.49052L129.878625 437.581053H91.316834c-48.451991 0-83.717049 34.665652-83.717049 83.017742v185.815884c0 20.379807 23.376837 40.659712 47.35308 40.659713 21.67852 0 47.35308-17.083073 47.35308-38.561791v260.841545c0 26.174065 13.586538 50.849616 39.660702 53.347141 29.870403 2.897129 49.451001-16.883271 49.451002-48.451992v0.099901h2.297723c0 31.468819 23.976243 51.24922 53.846646 48.451992 25.974263-2.497525 44.056347-27.173076 44.056347-53.347141V708.612502c0 21.378817 25.67456 38.561791 47.35308 38.561791 23.976243 0 47.35308-20.279906 47.35308-40.659713v-185.815884c0-48.451991-44.056347-83.117643-92.508338-83.117643z" fill="#4FA8EA" p-id="9359"></path></svg>