<?xml version="1.0" standalone="no"?><!DOCTYPE svg PUBLIC "-//W3C//DTD SVG 1.1//EN" "http://www.w3.org/Graphics/SVG/1.1/DTD/svg11.dtd"><svg t="1528179810916" class="icon" style="" viewBox="0 0 1024 1024" version="1.1" xmlns="http://www.w3.org/2000/svg" p-id="2145" xmlns:xlink="http://www.w3.org/1999/xlink" width="64" height="64"><defs><style type="text/css"></style></defs><path d="M563.03369141 494.18896484c10.3359375-0.27685547 20.02587891-4.52197266 27.13183593-11.99707031 14.765625-15.50390625 14.21191406-40.05175781-1.29199218-54.81738281s-40.05175781-14.21191406-54.81738282 1.29199219-14.21191406 40.05175781 1.29199219 54.81738281c7.47509766 7.19824219 17.34960938 10.98193359 27.68554688 10.70507812z" p-id="2146" fill="#1296db"></path><path d="M511.26171875 99.85449219c-227.85205078 0-412.51464844 184.75488281-412.51464844 412.51464844s184.75488281 412.51464844 412.51464844 412.51464843 412.51464844-184.75488281 412.51464844-412.51464843-184.66259766-412.51464844-412.51464844-412.51464844z m169.34326172 468.80859375c-24.36328125 25.47070313-55.55566406 42.17431641-90.16259766 48.17285156-31.65380859 5.53710938-63.67675781 1.75341797-93.0234375-10.79736328l-35.71435547 37.46777344c11.35107422 16.51904297 10.70507813 39.40576172-2.58398437 55.64794922-8.21337891 9.96679688-20.30273438 16.14990234-33.31494141 16.88818359-9.96679688 0.55371094-19.65673828-1.93798828-27.77783203-7.10595703l-20.85644531 18.64160156-2.67626953 0.46142578c-1.4765625 0.27685547-7.65966797 1.10742188-15.68847656 1.10742188-12.64306641 0-29.99267578-2.21484375-41.15917969-12.91992188-17.44189453-16.70361328-20.94873047-56.47851563-21.3178711-61.00048828l-0.27685546-4.06054687 118.49414062-124.21582032c-13.93505859-28.70068359-19.1953125-60.44677734-15.13476562-92.3774414 4.4296875-34.88378906 19.65673828-66.81445313 44.02001953-92.28515625 18.36474609-19.1953125 40.51318359-33.31494141 65.70703125-41.89746094l11.90478515-4.06054688 1.01513672 41.52832032-5.99853515 2.39941406c-16.79589844 6.64453125-31.56152344 16.61132813-43.83544922 29.53125-35.52978516 37.19091797-44.38916016 91.36230469-22.60986328 138.15087891l14.58105468 24.73242187-121.9086914 127.72265625c0.55371094 8.95166016 2.67626953 19.1953125 5.44482422 21.77929688 2.03027344 1.75341797 11.07421875 2.86083984 19.56445312 2.49169921l29.34667969-31.0078125 22.1484375 21.13330079c0.46142578 0.46142578 4.33740234 2.49169922 8.12109375-1.29199219 1.19970703-1.19970703 1.66113281-2.30712891 1.66113281-3.69140625 0-1.56884766-0.83056641-2.953125-1.38427734-3.50683594l-22.05615235-21.13330078 85.27148438-89.42431641 24.82470703 14.30419922c47.61914063 19.56445313 101.23681641 8.12109375 136.76660156-28.97753906 47.25-49.46484375 45.40429688-128.18408203-4.06054687-175.43408203-14.67333984-14.02734375-32.76123047-24.27099609-52.23339844-29.71582031l-6.55224609-1.84570313-0.92285157-40.79003906 11.44335938 2.76855469c28.51611328 6.64453125 54.6328125 20.76416016 75.67382812 40.88232421 31.65380859 30.26953125 49.64941406 70.96728516 50.66455078 114.71044922 0.92285156 43.74316406-15.13476563 85.36376953-45.40429687 117.01757813z m-64.23046875-169.98925781c15.13476563 14.48876953 23.80957031 34.05322266 24.27099609 55.00195312 0.46142578 20.94873047-7.19824219 40.88232422-21.68701172 56.01708984s-34.05322266 23.80957031-55.00195312 24.2709961h-1.84570313c-20.30273438 0-39.49804688-7.65966797-54.17138671-21.77929688-15.13476563-14.48876953-23.80957031-34.05322266-24.2709961-55.00195312s7.19824219-40.88232422 21.68701172-56.01708985c29.90039063-31.28466797 79.734375-32.39208984 111.01904297-2.49169921z" p-id="2147" fill="#1296db"></path></svg>