<?xml version="1.0" standalone="no"?><!DOCTYPE svg PUBLIC "-//W3C//DTD SVG 1.1//EN" "http://www.w3.org/Graphics/SVG/1.1/DTD/svg11.dtd"><svg t="1527557189838" class="icon" style="" viewBox="0 0 1461 1024" version="1.1" xmlns="http://www.w3.org/2000/svg" p-id="2032" xmlns:xlink="http://www.w3.org/1999/xlink" width="45.65625" height="32"><defs><style type="text/css"></style></defs><path d="M887.008391 805.869096H506.353392c-26.882762 0-48.85543-21.358907-48.85543-47.505154V292.641573c0-26.146248 21.849916-47.505155 48.85543-47.505155H829.805802c4.050827 0 7.36514 3.314313 7.36514 7.36514V265.390554c0 4.050827-3.314313 7.36514-7.36514 7.36514H506.353392c-11.661472 0-21.236154 8.960921-21.236154 19.885879v465.722369c0 10.924958 9.574682 19.885879 21.236154 19.885878h380.532247c11.661472 0 21.236154-8.960921 21.236154-19.885878V407.169504c0-4.296332 3.559818-7.85615 7.85615-7.85615h11.906977c4.296332 0 7.85615 3.559818 7.856149 7.85615v351.194438c0 26.269-21.849916 47.505155-48.732678 47.505154z m-22.58643-396.98106l-51.310477-51.310477 134.782067-134.659314c6.383122-6.383122 16.571566-6.383122 22.954687 0l28.233037 28.35579c6.383122 6.383122 6.383122 16.571566 0 22.954687L864.421961 408.888036z m-21.972668-51.310477l21.972668 21.972669 116.860226-116.860226-21.972669-21.972668-116.860225 116.860225zM965.938144 303.443778l-7.856149-7.119635-39.280748-39.280748 14.975785-14.362024 7.610645 6.874131 38.912491 39.035244-14.362024 14.853032z m-174.308319 127.539679l18.535603-68.373052 49.960201 50.205706-68.495804 18.167346z m25.532486-41.613042l-6.014864 22.218173 22.218173-5.892112-16.203309-16.326061z m-247.100455 0.122752h155.527211c7.487893 0 13.625509 6.137617 13.62551 13.62551s-6.137617 13.625509-13.62551 13.625509H570.061856c-7.487893 0-13.625509-6.137617-13.62551-13.625509 0.122752-7.487893 6.137617-13.625509 13.62551-13.62551z m0 105.812515h240.349077c7.487893 0 13.625509 6.137617 13.625509 13.62551s-6.137617 13.625509-13.625509 13.625509H570.061856c-7.487893 0-13.625509-6.137617-13.62551-13.625509 0.122752-7.487893 6.137617-13.625509 13.62551-13.62551z m0 101.638936h240.349077c7.487893 0 13.625509 6.137617 13.625509 13.625509s-6.137617 13.625509-13.625509 13.62551H570.061856c-7.487893 0-13.625509-6.137617-13.62551-13.62551 0.122752-7.487893 6.137617-13.625509 13.62551-13.625509z m-13.502757 0" fill="#0DAAF6" p-id="2033"></path><path d="M730.744666 36.825701c64.199473 0 126.434908 12.520738 184.987772 37.316711 56.588828 23.936706 107.408295 58.184608 151.108128 101.88444 43.699832 43.699832 77.947734 94.5193 101.88444 151.108128 24.795972 58.552865 37.316711 120.7883 37.316711 184.987772s-12.520738 126.434908-37.316711 184.987773c-23.936706 56.588828-58.184608 107.408295-101.88444 151.108128-43.699832 43.699832-94.5193 77.947734-151.108128 101.88444-58.552865 24.795972-120.7883 37.316711-184.987772 37.31671s-126.434908-12.520738-184.987773-37.31671c-56.588828-23.936706-107.408295-58.184608-151.108128-101.88444-43.699832-43.699832-77.947734-94.5193-101.88444-151.108128-24.795972-58.552865-37.316711-120.7883-37.316711-184.987773s12.520738-126.434908 37.316711-184.987772c23.936706-56.588828 58.184608-107.408295 101.88444-151.108128 43.699832-43.699832 94.5193-77.947734 151.108128-101.88444 58.552865-24.67322 120.7883-37.316711 184.987773-37.316711m0-36.825701c-282.821386 0-512 229.178614-512 512S447.92328 1024 730.744666 1024s512-229.178614 512-512S1013.443299 0 730.744666 0z" fill="#0DAAF6" p-id="2034"></path></svg>