<?xml version="1.0" standalone="no"?><!DOCTYPE svg PUBLIC "-//W3C//DTD SVG 1.1//EN" "http://www.w3.org/Graphics/SVG/1.1/DTD/svg11.dtd"><svg t="1527556695596" class="icon" style="" viewBox="0 0 1024 1024" version="1.1" xmlns="http://www.w3.org/2000/svg" p-id="1905" xmlns:xlink="http://www.w3.org/1999/xlink" width="32" height="32"><defs><style type="text/css"></style></defs><path d="M444.179886 895.058054l-7.116926 128.941946 128.104661-14.652494L993.439084 554.701554l-120.987735-113.87081z m491.486508-339.519215l-388.500409 418.642682-67.820114 7.116925 2.511856-69.076042 391.430908-413.200327zM331.146361 951.156173H140.245298a56.098119 56.098119 0 0 1-56.098119-56.098119V107.591169a56.098119 56.098119 0 0 1 56.098119-56.098119h633.406378a56.098119 56.098119 0 0 1 56.516762 56.098119v251.185609h53.167621V83.728536a83.728536 83.728536 0 0 0-83.728537-83.728536H114.289452a83.728536 83.728536 0 0 0-83.728536 83.728536v833.51758a83.728536 83.728536 0 0 0 83.728536 83.728536h216.856909z" fill="#3399CC" p-id="1906"></path><path d="M230.672118 241.138185l452.552739 0 0 51.911692-452.552739 0 0-51.911692Z" fill="#3399CC" p-id="1907"></path><path d="M230.672118 419.89861l362.12592 0 0 51.911693-362.12592 0 0-51.911693Z" fill="#3399CC" p-id="1908"></path><path d="M230.672118 598.659035l232.765331 0 0 51.911693-232.765331 0 0-51.911693Z" fill="#3399CC" p-id="1909"></path></svg>