<?xml version="1.0" standalone="no"?><!DOCTYPE svg PUBLIC "-//W3C//DTD SVG 1.1//EN" "http://www.w3.org/Graphics/SVG/1.1/DTD/svg11.dtd"><svg t="1527578084547" class="icon" style="" viewBox="0 0 1024 1024" version="1.1" xmlns="http://www.w3.org/2000/svg" p-id="7458" xmlns:xlink="http://www.w3.org/1999/xlink" width="32" height="32"><defs><style type="text/css"></style></defs><path d="M949.047815 364.17548h-873.862599A74.802638 74.802638 0 0 0 0.266062 438.861604v510.452273a74.802638 74.802638 0 0 0 74.686123 74.686123h873.862599a74.802638 74.802638 0 0 0 74.686124-74.686123V438.861604a74.802638 74.802638 0 0 0-74.453093-74.686124zM990.643674 949.313877a42.178435 42.178435 0 0 1-42.06192 42.061919h-873.862599a42.178435 42.178435 0 0 1-41.828889-42.061919V438.861604A42.178435 42.178435 0 0 1 74.952185 396.217109h873.862599A42.178435 42.178435 0 0 1 990.643674 438.861604z" fill="#1296db" p-id="7459"></path><path d="M911.879525 529.393769H112.120475a16.312102 16.312102 0 0 0 0 32.624204h799.75905a16.312102 16.312102 0 1 0 0-32.624204zM888.576523 864.490947h-20.856188a16.312102 16.312102 0 1 0 0 32.624204h20.739673a16.312102 16.312102 0 0 0 0-32.624204zM787.091946 864.490947h-20.739672a16.312102 16.312102 0 0 0 0 32.624204h20.739672a16.312102 16.312102 0 0 0 0-32.624204zM685.723885 864.490947H664.401637A16.312102 16.312102 0 0 0 664.401637 897.231666h20.739673a16.312102 16.312102 0 0 0 0-32.624204zM291.553595 140.58317a16.312102 16.312102 0 0 0 21.671792-7.806506l42.411465-90.41565a16.778162 16.778162 0 0 1 22.254368-8.039536L905.00514 279.702096a16.312102 16.312102 0 1 0 13.748771-29.594814L391.639991 4.726665a49.402366 49.402366 0 0 0-65.597952 23.303002l-42.52798 90.88171a16.312102 16.312102 0 0 0 8.039536 21.671793zM111.887445 290.304962a16.312102 16.312102 0 0 0 20.623157-10.602866l28.662693-86.803685a16.778162 16.778162 0 0 1 21.089218-10.602866l335.563238 110.689262a15.962557 15.962557 0 0 0 5.12666 0.815605 16.312102 16.312102 0 0 0 5.126661-31.808598L192.399319 151.535581a49.402366 49.402366 0 0 0-62.335532 31.342539l-28.546178 86.9202a16.312102 16.312102 0 0 0 10.369836 20.506642z" fill="#1296db" p-id="7460"></path></svg>