<?xml version="1.0" standalone="no"?><!DOCTYPE svg PUBLIC "-//W3C//DTD SVG 1.1//EN" "http://www.w3.org/Graphics/SVG/1.1/DTD/svg11.dtd"><svg t="1527070186704" class="icon" style="" viewBox="0 0 1024 1024" version="1.1" xmlns="http://www.w3.org/2000/svg" p-id="1215" xmlns:xlink="http://www.w3.org/1999/xlink" width="32" height="32"><defs><style type="text/css"></style></defs><path d="M77.9264 333.2096h868.32128c13.07648 0 13.07648-10.10176 13.07648-10.10176v-92.6208c0-24.92416-20.39296-45.32224-45.32736-45.32224H109.42976c-24.92416 0-45.32224 20.39296-45.32224 45.32224v86.36928c0 16.35328 13.81888 16.35328 13.81888 16.35328z" fill="#F7924D" p-id="1216"></path><path d="M940.45184 429.63968H78.37696c-14.26944 0-14.26944 11.33056-14.26944 11.33056v350.28992c0 24.92416 20.39296 45.32224 45.32224 45.32224h804.5824c24.91904 0 45.32736-20.38784 45.32736-45.32224V448.10752c-0.01024 0-0.01024-18.46784-18.88768-18.46784zM187.96032 667.8784h66.4576v-31.8976h-66.4576c-18.6112 0-27.91424-10.63424-27.91424-23.92576 0-11.96544 9.30304-18.6112 27.91424-18.6112h47.85152l-35.88608-57.15456c-11.96032-23.92576 26.58304-43.85792 39.87456-23.92576 13.29152 22.59968 39.87456 66.4576 39.87456 66.4576s30.57152-47.85152 45.19424-71.77728c11.96544-22.59456 53.16096 3.98848 39.87456 27.91424l-39.87456 59.81184h47.85152c18.60608-0.00512 26.57792 6.64576 26.57792 18.60608 0 11.96544-9.30304 23.92576-26.57792 23.92576H308.9152v31.8976h63.80032c18.60608 0 26.57792 6.64576 26.57792 18.60608 0 11.96544-9.30304 21.26848-26.57792 21.26848H308.9152v34.55488c0 26.58816-9.30304 39.87456-29.24032 39.87456-18.6112 0-26.58304-13.2864-26.58304-39.87456v-35.88608h-66.4576c-18.6112 0-27.91424-9.29792-27.91424-21.26336 1.3312-11.96032 10.63424-18.60096 29.24032-18.60096z m771.24096-4.64896l-317.32224 0.0768s0.38912-58.25024 0.38912-60.05248l316.928-0.256 0.00512 60.23168z m-276.06528-142.40768a30.11584 30.11584 0 0 1 0 42.5984l-40.86784 39.82336-94.33088 50.41152a30.11584 30.11584 0 0 1 0.00512-42.59328l92.60544-90.23488a30.1056 30.1056 0 0 1 42.58816-0.00512z m-1.1776 226.19136a30.11584 30.11584 0 0 1-42.5984 0l-91.42272-93.35808 94.33088-50.41152-0.37888 60.05248 40.06912 41.12384a30.12096 30.12096 0 0 1 0 42.59328z" fill="#EF821E" p-id="1217"></path></svg>