<?xml version="1.0" standalone="no"?><!DOCTYPE svg PUBLIC "-//W3C//DTD SVG 1.1//EN" "http://www.w3.org/Graphics/SVG/1.1/DTD/svg11.dtd"><svg t="1527070943741" class="icon" style="" viewBox="0 0 1024 1024" version="1.1" xmlns="http://www.w3.org/2000/svg" p-id="12370" xmlns:xlink="http://www.w3.org/1999/xlink" width="32" height="32"><defs><style type="text/css"></style></defs><path d="M488 524.032a30.848 30.848 0 0 1 3.392-3.392 31.552 31.552 0 0 1 20.608-8v-288c-176.704 0-320 143.296-320 320h288c0-7.968 3.2-15.008 8-20.608z" fill="#950c91" p-id="12371"></path><path d="M315.488 82.912c2.656 2.656 4.96 5.472 7.264 8.32L288.064 125.92 109.568 304.416l-34.656 34.656a98.24 98.24 0 0 1-8.32-7.232 97.216 97.216 0 0 1-20.832-31.488C24 247.68 44.32 173.088 100.544 116.864 156.768 60.64 231.328 40.32 284 62.08c11.744 4.864 22.4 11.744 31.488 20.832z m-230.4 178.112L244.672 101.44c-33.12-2.88-75.392 14.56-110.176 49.376S82.24 227.872 85.088 261.024z m838.368-144.16c-56.224-56.224-130.816-76.576-183.456-54.752-11.712 4.832-22.4 11.712-31.488 20.8-2.624 2.624-4.928 5.472-7.232 8.32l34.656 34.656 178.496 178.496 34.656 34.656c2.88-2.24 5.696-4.608 8.32-7.264 9.088-9.088 15.968-19.776 20.832-31.456 21.76-52.672 1.472-127.2-54.784-183.456z m15.488 144.16L779.328 101.44c33.12-2.88 75.392 14.592 110.176 49.344 34.848 34.848 52.256 77.088 49.44 110.24z m-10.656 705.28a24 24 0 1 1-33.952 33.952l-115.968-115.968A429.76 429.76 0 0 1 512 976.64a429.76 429.76 0 0 1-266.368-92.352l-116 115.968a24 24 0 1 1-33.952-33.952l113.664-113.632A430.56 430.56 0 0 1 80 544.64c0-230.496 180.672-418.272 408-430.784v-25.088c0-1.536 0.608-2.848 0.864-4.32-16.544 0.896-32.864 2.624-48.864 5.344v-1.024a72 72 0 1 1 144 0v0.992c-16-2.688-32.32-4.448-48.864-5.312 0.288 1.44 0.864 2.784 0.864 4.32v25.056c227.36 12.544 408 200.32 408 430.816 0 120.672-49.6 229.696-129.344 308.064l113.632 113.6zM896 544.64c0-212.064-171.904-384-384-384-212.064 0-384 171.936-384 384s171.936 384 384 384c212.096 0 384-171.968 384-384z m-307.808-23.168a79.52 79.52 0 0 0-52.192-52.768V248a24 24 0 0 0-48 0v220.704a79.744 79.744 0 0 0-51.936 51.936H280a24 24 0 1 0 0 48h156.064a79.68 79.68 0 0 0 51.936 51.936v12.096a24 24 0 0 0 48 0v-12.064a79.68 79.68 0 0 0 52.192-52.8 23.744 23.744 0 0 0 19.808-23.168 23.68 23.68 0 0 0-19.808-23.168z m-52.192 43.744a28.288 28.288 0 0 1-3.392 3.392c-5.6 4.8-12.64 8-20.608 8s-15.008-3.2-20.608-8a28.288 28.288 0 0 1-3.392-3.392 31.456 31.456 0 0 1-8-20.576c0-7.968 3.2-15.008 8-20.608a30.848 30.848 0 0 1 3.392-3.392c5.6-4.8 12.64-8 20.608-8s15.008 3.2 20.608 8a28.288 28.288 0 0 1 3.392 3.392c4.8 5.6 8 12.64 8 20.608s-3.2 14.976-8 20.576z" fill="#950c91" p-id="12372"></path></svg>