<?xml version="1.0" standalone="no"?><!DOCTYPE svg PUBLIC "-//W3C//DTD SVG 1.1//EN" "http://www.w3.org/Graphics/SVG/1.1/DTD/svg11.dtd"><svg t="1527579098754" class="icon" style="" viewBox="0 0 1047 1024" version="1.1" xmlns="http://www.w3.org/2000/svg" p-id="9537" xmlns:xlink="http://www.w3.org/1999/xlink" width="32.71875" height="32"><defs><style type="text/css"></style></defs><path d="M1046.943363 149.36917a32.77684 32.77684 0 0 1-32.904543 32.947109h-213.56027a32.904542 32.904542 0 0 1-32.94711-32.947109c0-18.133681 14.770862-32.861975 32.904543-32.904543l213.602837 0.042568a32.77684 32.77684 0 0 1 32.904543 32.861975zM513.489644 493.653696c-4.256733-8.002657-7.96009-15.579641-12.131688-22.858654-38.225458-67.554345-76.621185-135.023555-114.718941-202.705602-1.574991-2.937145-3.533088-3.320251-6.427667-3.320252h-52.35781l-5.022944 0.255404 140.259337 242.84659H344.795334v49.718636h137.747864v78.068474H344.667632v45.802442h138.386374v116.081096h56.0186v-116.293932h133.448564v-45.972711h-134.129641v-78.111042h134.257343v-49.378097h-109.993968l139.152586-242.974292c-19.112729 0-36.735602 0.170269-54.315907-0.085135-4.043896-0.085135-6.129695 1.10675-8.002657 4.554704-16.899228 30.39307-33.798456 60.615871-50.910521 90.838672-24.98702 44.312586-49.846338 88.497469-75.088761 133.533699z" fill="#1296db" p-id="9538"></path><path d="M525.280793 73.173658h-13.025602C269.961976 73.386494 73.471203 269.664431 73.173232 512.000213c0 241.654705 197.214418 438.91169 439.167094 438.826555 242.122946-0.085135 439.081959-197.044148 439.081959-438.826555v-2.000664a36.309928 36.309928 0 1 1 72.534722 0v-24.561347c0.510808 8.811436 0.681077 17.66544 0.681077 26.562011 0 282.263933-229.778421 511.95722-512.255191 511.95722C229.608152 1024 0 794.264146 0 511.915078S229.948691-0.297546 512.808566 0.000426h12.514794a36.480198 36.480198 0 0 1 36.480198 36.607899 36.480198 36.480198 0 0 1-36.522765 36.565333z" fill="#1296db" p-id="9539"></path></svg>