<?xml version="1.0" standalone="no"?><!DOCTYPE svg PUBLIC "-//W3C//DTD SVG 1.1//EN" "http://www.w3.org/Graphics/SVG/1.1/DTD/svg11.dtd"><svg t="1527127177313" class="icon" style="" viewBox="0 0 1024 1024" version="1.1" xmlns="http://www.w3.org/2000/svg" p-id="8516" xmlns:xlink="http://www.w3.org/1999/xlink" width="32" height="32"><defs><style type="text/css"></style></defs><path d="M365.716803 950.840777H109.712397C49.269238 950.840777 0 901.606788 0 841.12838V109.694773C0 49.242801 49.269238 0 109.712397 0h585.132786c60.460784 0 109.730022 49.242801 109.730022 109.694773v219.424795c0 20.232905-16.346707 36.579611-36.570799 36.579611s-36.570799-16.346707-36.570799-36.579611v-219.424795a36.676546 36.676546 0 0 0-36.579611-36.570799h-585.132786a36.676546 36.676546 0 0 0-36.5708 36.570799V841.12838a36.676546 36.676546 0 0 0 36.5708 36.579611h256.004406c20.224093 0 36.579611 16.346707 36.579611 36.570799s-16.364331 36.561987-36.588424 36.561987z m0 0" fill="#1179BD" p-id="8517"></path><path d="M713.139395 1024c-83.081806 0-161.131822-32.349736-219.75966-91.100945-58.760021-58.627838-91.08332-136.669042-91.08332-219.768472 0-83.072994 32.323299-161.149447 91.08332-219.768472 58.619025-58.751209 136.677854-91.074508 219.75966-91.074508 83.09943 0 161.158259 32.323299 219.777285 91.074508 58.627838 58.751209 91.092133 136.801225 91.092132 219.768472 0 83.09943-32.358548 161.149447-91.092132 219.768472s-136.686666 91.100945-219.777285 91.100945z m0-548.553175c-131.073269 0-237.719007 106.601676-237.719006 237.674946 0 131.099706 106.645738 237.719007 237.719006 237.719006 131.099706 0 237.736631-106.619301 237.736631-237.719006-0.008812-131.073269-106.636925-237.674945-237.736631-237.674946z m0 0" fill="#49BCBA" p-id="8518"></path><path d="M621.72121 292.548769h-438.84959a36.517926 36.517926 0 0 1-36.570799-36.579612 36.500301 36.500301 0 0 1 36.570799-36.526738h438.84959c20.224093 0 36.570799 16.302645 36.570799 36.526738a36.526738 36.526738 0 0 1-36.570799 36.579612z m0 0M365.716803 511.973563H182.87162a36.509113 36.509113 0 0 1-36.570799-36.526738 36.53555 36.53555 0 0 1 36.570799-36.597235h182.845183a36.553175 36.553175 0 0 1 36.579612 36.597235 36.526738 36.526738 0 0 1-36.579612 36.526738z m0 0M292.575205 731.442419H182.87162a36.544362 36.544362 0 0 1-36.570799-36.597236 36.517926 36.517926 0 0 1 36.570799-36.570799h109.703585a36.517926 36.517926 0 0 1 36.561987 36.570799 36.544362 36.544362 0 0 1-36.561987 36.597236z m0 0" fill="#1179BD" p-id="8519"></path><path d="M731.433607 841.12838a35.927506 35.927506 0 0 1-20.338652-6.177381L601.373746 761.818213a36.61486 36.61486 0 0 1-10.169326-50.740882 36.623673 36.623673 0 0 1 50.740882-10.178138l77.847335 51.904098L809.721554 602.84539a36.544362 36.544362 0 0 1 50.168086-12.575068 36.53555 36.53555 0 0 1 12.566256 50.185711L762.761123 823.301217a37.249342 37.249342 0 0 1-23.326001 16.945939c-2.626048 0.652106-5.375467 0.881224-8.001515 0.881224z m0 0" fill="#49BCBA" p-id="8520"></path></svg>