<?xml version="1.0" standalone="no"?><!DOCTYPE svg PUBLIC "-//W3C//DTD SVG 1.1//EN" "http://www.w3.org/Graphics/SVG/1.1/DTD/svg11.dtd"><svg t="1527558645371" class="icon" style="" viewBox="0 0 1024 1024" version="1.1" xmlns="http://www.w3.org/2000/svg" p-id="6034" xmlns:xlink="http://www.w3.org/1999/xlink" width="32" height="32"><defs><style type="text/css"></style></defs><path d="M510.5664 1.4336C792.576 1.4336 1021.3376 229.9904 1021.3376 512c0 282.0096-228.5568 510.5664-510.5664 510.5664C228.5568 1022.5664 0 794.0096 0 512 0 229.9904 228.5568 1.4336 510.5664 1.4336z" fill="#FFFFFF" p-id="6035"></path><path d="M510.5664 1.4336C228.5568 1.4336 0 229.9904 0 512c0 282.0096 228.5568 510.5664 510.5664 510.5664 282.0096 0 510.5664-228.5568 510.5664-510.5664C1021.3376 229.9904 792.576 1.4336 510.5664 1.4336z m0 1009.8688c-129.024 0-246.784-48.9472-335.2576-129.4336l0.6144-1.024s84.992-33.9968 130.4576-45.4656c45.4656-11.264 62.464-33.9968 73.728-45.4656 11.264-11.264 11.264-39.7312 11.264-68.1984 0-28.4672-28.4672-45.4656-28.4672-68.1984 0-22.7328 5.7344-62.464-11.264-68.1984-16.9984-5.7344-22.7328-16.9984-28.4672-33.9968-5.7344-16.9984-16.9984-33.9968-16.9984-62.464 0-28.4672 16.9984-28.4672 16.9984-28.4672s-11.264-62.464-11.264-124.7232c0-62.464 50.9952-90.7264 50.9952-90.7264s62.464-62.464 141.9264-62.464c102.1952 0 187.1872 56.7296 187.1872 164.4544 0 62.464-16.9984 113.4592-16.9984 113.4592s16.9984 5.7344 16.9984 28.4672c0 22.7328-5.7344 45.4656-16.9984 68.1984-11.264 22.7328-22.7328 22.7328-33.9968 33.9968-6.9632 6.9632-5.7344 52.8384-5.7344 68.1984 0 22.7328-28.4672 45.4656-28.4672 62.464s-5.7344 56.7296 11.264 73.728 50.9952 39.7312 124.7232 56.7296c47.7184 11.0592 78.848 26.8288 94.8224 36.6592-87.2448 76.3904-201.728 122.4704-327.0656 122.4704z m0 0" fill="#CCCCCC" p-id="6036"></path></svg>