<?xml version="1.0" standalone="no"?><!DOCTYPE svg PUBLIC "-//W3C//DTD SVG 1.1//EN" "http://www.w3.org/Graphics/SVG/1.1/DTD/svg11.dtd"><svg t="1527577532410" class="icon" style="" viewBox="0 0 1024 1024" version="1.1" xmlns="http://www.w3.org/2000/svg" p-id="1820" xmlns:xlink="http://www.w3.org/1999/xlink" width="32" height="32"><defs><style type="text/css"></style></defs><path d="M460.801138 1023.374222a457.955556 457.955556 0 0 1-325.859556-135.054222A459.832889 459.832889 0 0 1 0.001138 562.005333a459.264 459.264 0 0 1 134.940444-326.144 458.808889 458.808889 0 0 1 325.802667-135.054222h31.232v431.331556h429.738667v30.151111a461.141333 461.141333 0 0 1-460.970667 461.027555zM431.617138 162.019556a397.368889 397.368889 0 0 0-254.122667 116.394666 398.506667 398.506667 0 0 0-117.361778 283.477334c0 107.178667 41.699556 207.815111 117.361778 283.477333A398.108444 398.108444 0 0 0 460.801138 962.901333c106.951111 0 207.473778-41.756444 283.192889-117.418666a398.222222 398.222222 0 0 0 116.280889-253.155556H431.674027V162.019556z" fill="#2481BC" p-id="1821"></path><path d="M1023.034027 470.698667l-30.151111-0.113778H553.586916V0.682667l30.208 0.056889a440.092444 440.092444 0 0 1 310.613333 129.024 436.167111 436.167111 0 0 1 94.151111 139.605333c22.926222 54.101333 34.588444 111.672889 34.588444 170.837333v30.492445h-0.113777z m-409.144889-60.472889h347.648a376.035556 376.035556 0 0 0-109.795556-237.852445 377.287111 377.287111 0 0 0-237.852444-110.193777v348.046222z" fill="#2481BC" p-id="1822"></path></svg>