<?xml version="1.0" standalone="no"?><!DOCTYPE svg PUBLIC "-//W3C//DTD SVG 1.1//EN" "http://www.w3.org/Graphics/SVG/1.1/DTD/svg11.dtd"><svg t="1527578192712" class="icon" style="" viewBox="0 0 1024 1024" version="1.1" xmlns="http://www.w3.org/2000/svg" p-id="8488" xmlns:xlink="http://www.w3.org/1999/xlink" width="32" height="32"><defs><style type="text/css"></style></defs><path d="M462.72 544a133.44 133.44 0 1 0-190.4 0 203.2 203.2 0 0 0-107.84 179.2v28.16h64v-28.16a139.2 139.2 0 0 1 278.08 0v28.16h64v-28.16a203.2 203.2 0 0 0-107.84-179.2z m-164.48-94.08a69.44 69.44 0 1 1 69.44 69.44 69.44 69.44 0 0 1-69.44-69.44zM563.52 448h264v64h-264zM595.2 586.56h232.32v64H595.2z" fill="#1296db" p-id="8489"></path><path d="M906.56 176H627.2V130.56h-230.4V176H117.44A93.44 93.44 0 0 0 24 269.44V800a93.44 93.44 0 0 0 93.44 93.44h789.12A93.44 93.44 0 0 0 1000 800V269.44a93.44 93.44 0 0 0-93.44-93.44z m-445.76 18.56h102.4v24h-102.4zM936 800a29.44 29.44 0 0 1-29.44 29.44H117.44a29.44 29.44 0 0 1-29.44-29.44V269.44a29.44 29.44 0 0 1 29.44-29.44h279.36v42.56h230.4V240h279.36a29.44 29.44 0 0 1 29.44 29.44z" fill="#1296db" p-id="8490"></path></svg>