<?xml version="1.0" standalone="no"?><!DOCTYPE svg PUBLIC "-//W3C//DTD SVG 1.1//EN" "http://www.w3.org/Graphics/SVG/1.1/DTD/svg11.dtd"><svg t="1527125932557" class="icon" style="" viewBox="0 0 1024 1024" version="1.1" xmlns="http://www.w3.org/2000/svg" p-id="6101" xmlns:xlink="http://www.w3.org/1999/xlink" width="32" height="32"><defs><style type="text/css"></style></defs><path d="M580.266667 537.6v-42.666667c128 0 226.133333-115.2 226.133333-217.6 0-64-25.6-123.733333-68.266667-157.866666-34.133333-29.866667-81.066667-42.666667-128-34.133334l-8.533333-42.666666c59.733333-12.8 115.2 4.266667 162.133333 42.666666 55.466667 46.933333 85.333333 115.2 85.333334 192-4.266667 140.8-128 260.266667-268.8 260.266667z" fill="#20ADE5" p-id="6102"></path><path d="M874.666667 1002.666667c-21.333333 0-46.933333 0-76.8-4.266667l4.266666-42.666667c72.533333 4.266667 115.2 8.533333 136.533334-12.8 12.8-12.8 21.333333-42.666667 21.333333-89.6 0-174.933333-170.666667-320-375.466667-320v-42.666666c226.133333 0 418.133333 166.4 418.133334 362.666666 0 59.733333-8.533333 98.133333-34.133334 119.466667-21.333333 25.6-51.2 29.866667-93.866666 29.866667z" fill="#20ADE5" p-id="6103"></path><path d="M298.666667 524.8c-89.6-34.133333-149.333333-115.2-149.333334-213.333333C149.333333 187.733333 256 85.333333 384 85.333333s234.666667 102.4 234.666667 226.133334c0 98.133333-64 179.2-149.333334 213.333333 170.666667 34.133333 298.666667 170.666667 298.666667 332.8 0 187.733333-170.666667 110.933333-384 110.933333s-384 72.533333-384-110.933333c0-162.133333 128-298.666667 298.666667-332.8z" fill="#20ADE5" p-id="6104"></path></svg>