<?xml version="1.0" standalone="no"?><!DOCTYPE svg PUBLIC "-//W3C//DTD SVG 1.1//EN" "http://www.w3.org/Graphics/SVG/1.1/DTD/svg11.dtd"><svg t="1527578031257" class="icon" style="" viewBox="0 0 1024 1024" version="1.1" xmlns="http://www.w3.org/2000/svg" p-id="6633" xmlns:xlink="http://www.w3.org/1999/xlink" width="32" height="32"><defs><style type="text/css"></style></defs><path d="M49.93219 273.554286l437.394286 248.685714a24.771048 24.771048 0 0 0 24.478476 0l437.296762-248.685714a24.868571 24.868571 0 0 0-1.170285-43.885715L510.634667 10.24a24.624762 24.624762 0 0 0-22.186667 0l-437.394286 219.428571a24.966095 24.966095 0 0 0-1.121524 43.885715z m24.478477-43.300572l-1.170286 43.885715 437.394286-219.428572h-22.186667l437.345524 219.428572-1.170286-43.885715-437.296762 248.685715h24.478476l-437.394285-248.685715z" fill="#1296db" p-id="6634"></path><path d="M474.794667 521.118476v477.769143c0 19.017143 20.382476 31.110095 36.912762 21.74781l466.505142-264.289524a25.014857 25.014857 0 0 0 12.580572-21.699048v-321.828571a24.81981 24.81981 0 1 0-49.590857 0v321.828571l12.580571-21.699047-466.505143 264.289523 36.961524 21.650286v-477.769143a24.722286 24.722286 0 0 0-49.444571 0z" fill="#1296db" p-id="6635"></path><path d="M512.390095 977.627429l-437.394285-264.289524 12.04419 21.308952v-468.114286a24.81981 24.81981 0 0 0-49.590857 0v468.114286c0 8.777143 4.534857 16.871619 11.995428 21.308953l437.394286 264.289523c11.702857 7.070476 26.916571 3.31581 33.938286-8.484571a25.014857 25.014857 0 0 0-8.387048-34.133333z" fill="#1296db" p-id="6636"></path><path d="M166.034286 463.384381l145.798095 87.82019a24.673524 24.673524 0 0 0 33.938286-8.582095 24.81981 24.81981 0 0 0-8.484572-34.133333l-145.798095-87.771429a24.722286 24.722286 0 0 0-33.938286 8.533334 24.966095 24.966095 0 0 0 8.484572 34.133333z" fill="#1296db" p-id="6637"></path></svg>