<?xml version="1.0" standalone="no"?><!DOCTYPE svg PUBLIC "-//W3C//DTD SVG 1.1//EN" "http://www.w3.org/Graphics/SVG/1.1/DTD/svg11.dtd"><svg t="1528179929012" class="icon" style="" viewBox="0 0 1024 1024" version="1.1" xmlns="http://www.w3.org/2000/svg" p-id="2865" xmlns:xlink="http://www.w3.org/1999/xlink" width="64" height="64"><defs><style type="text/css"></style></defs><path d="M78.44 335.917h104V571.1h-104V335.917zM416.355 676.914H310.36v0.002s15.22 138.062 127.193 282.65c0 0 97.297 4.352 111.976-35.875 0 0 10.326-26.636-20.654-60.877-9.916-15.743-98.103-90.234-112.519-185.9zM794.863 65.22C604.974 291.34 242.959 304.57 242.959 304.57l0.112 301.226c428.85 19.573 553.322 181.006 553.322 181.006C962.168 745.49 944.882 452.24 944.886 452.24 957.28 26.386 794.863 65.221 794.863 65.221z" p-id="2866" fill="#1296db"></path></svg>