<?xml version="1.0" standalone="no"?><!DOCTYPE svg PUBLIC "-//W3C//DTD SVG 1.1//EN" "http://www.w3.org/Graphics/SVG/1.1/DTD/svg11.dtd"><svg t="1527577881786" class="icon" style="" viewBox="0 0 1024 1024" version="1.1" xmlns="http://www.w3.org/2000/svg" p-id="3045" xmlns:xlink="http://www.w3.org/1999/xlink" width="32" height="32"><defs><style type="text/css"></style></defs><path d="M940.8 550.4l-409.6 166.4c-6.4 6.4-12.8 6.4-12.8 6.4-6.4 0-12.8 0-12.8-6.4L89.6 550.4C76.8 544 64 524.8 64 512c0-19.2 19.2-38.4 38.4-38.4 6.4 0 12.8 0 12.8 6.4L512 633.6l390.4-160c6.4-6.4 12.8-6.4 12.8-6.4 25.6 6.4 44.8 25.6 44.8 44.8 6.4 19.2-6.4 32-19.2 38.4z" fill="#009AC5" p-id="3046"></path><path d="M934.4 307.2L524.8 473.6c0 6.4-6.4 6.4-12.8 6.4s-12.8 0-12.8-6.4L89.6 307.2c-12.8-6.4-25.6-19.2-25.6-38.4s12.8-32 25.6-38.4L499.2 64h25.6l409.6 166.4c12.8 12.8 25.6 25.6 25.6 38.4s-12.8 32-25.6 38.4zM115.2 710.4c6.4 0 12.8 0 12.8 6.4l390.4 160 390.4-160c6.4-6.4 12.8-6.4 12.8-6.4 25.6 0 38.4 19.2 38.4 38.4s-12.8 32-25.6 38.4L524.8 960H512c-6.4 0-12.8 0-12.8-6.4l-409.6-166.4c-12.8-6.4-25.6-19.2-25.6-32 6.4-25.6 25.6-44.8 51.2-44.8z" fill="#009AC5" p-id="3047"></path></svg>