<?xml version="1.0" standalone="no"?><!DOCTYPE svg PUBLIC "-//W3C//DTD SVG 1.1//EN" "http://www.w3.org/Graphics/SVG/1.1/DTD/svg11.dtd"><svg t="1527070338531" class="icon" style="" viewBox="0 0 1024 1024" version="1.1" xmlns="http://www.w3.org/2000/svg" p-id="2993" xmlns:xlink="http://www.w3.org/1999/xlink" width="32" height="32"><defs><style type="text/css"></style></defs><path d="M443.6 755.001c-2.7-3.961-5.76-7.561-9.36-11.161-7.2-7.2-15.3-12.599-24.119-16.199-9.54-3.6-19.44-5.401-29.52-5.401-2.34 0-4.86 0.18-7.561 0.54-2.7 0.361-5.22 0.54-7.561 0.9-2.34 0.361-4.681 0.9-7.2 1.801-2.34 0.9-4.86 1.62-7.2 2.16-3.060 1.26-5.94 2.7-9.001 4.5l-7.2 5.401c-3.060 1.801-5.58 3.961-8.1 6.3-3.6 3.6-6.66 7.38-9.36 11.161-2.7 3.961-4.86 7.92-6.66 12.060-3.6 9.54-5.401 19.26-5.401 29.159s1.801 19.26 5.401 28.26c3.6 8.279 9.001 16.38 16.201 24.119 7.2 6.48 15.3 11.881 24.121 16.201 9.001 3.6 18.72 5.401 29.52 5.401 10.080 0 19.799-1.98 29.159-5.76 9.18-3.959 17.46-9.18 24.66-15.66 7.2-7.74 12.601-15.84 16.201-24.121 4.14-9.001 6.3-18.361 6.3-28.26s-2.16-19.62-6.3-29.161c-2.16-4.32-4.5-8.46-7.020-12.24zM907.46 290.060c-1.801-3.060-4.14-5.58-7.2-8.1-3.060-2.34-6.48-4.5-10.8-6.3-8.279-4.14-20.34-6.3-35.82-6.3h-554.759l-4.5-30.42-3.6-23.22v-4.32c-1.26-6.48-2.16-10.98-2.7-13.5l-4.5-14.4c-1.26-4.679-3.6-9.9-7.2-15.12-2.34-2.34-4.86-4.5-7.561-6.3s-5.58-3.6-8.46-5.401c-6.48-3.060-15.12-4.5-25.92-4.5h-82.26c-5.94 0-11.34 0.9-16.199 2.7s-9.18 4.14-13.5 7.2c-7.2 7.2-10.8 16.201-10.8 26.82 0 2.34 0.18 5.040 0.361 8.1 0.361 3.060 0.72 5.94 1.44 9.001 0.54 3.060 1.62 5.94 3.060 9.001 1.44 3.060 2.88 6.3 3.959 9.9 4.14 5.399 9.001 10.080 14.4 14.4 4.86 3.6 11.34 5.401 19.62 5.401h60.841l34.919 179.82 13.5 68.94 11.7 61.74 9.001 45.719 4.5 23.22c1.26 5.94 3.239 14.58 6.3 25.92 1.801 4.86 3.78 9.18 5.76 13.5 2.16 4.14 4.32 8.1 6.66 11.7 4.679 7.74 10.8 14.039 17.82 18.72 2.34 1.801 4.86 3.060 7.561 3.961 2.7 0.9 5.76 1.62 9.001 2.16 3.239 0.54 6.66 0.9 10.26 0.9h424.98c15.481 0 25.74-3.961 30.42-11.7 5.399-7.74 8.1-16.921 8.1-27.719 0-22.14-13.14-33.12-39.42-33.12h-407.7l-12.599-71.639h425.881c15.479 0 28.62-4.14 39.42-12.601 5.401-4.14 10.26-9.9 14.759-17.46 4.5-7.38 8.46-16.201 12.060-26.46 1.801-5.399 6.48-19.44 14.4-42.119l18.72-52.74 17.1-49.14 10.8-29.52c0.54-1.801 1.079-3.6 1.44-5.401s0.54-3.78 0.9-5.76c0.361-2.16 0.54-4.32 0.54-6.66 0.361-6.66-1.079-12.96-4.679-18.9zM771.561 745.639c-6.48-7.2-14.58-12.601-24.121-16.201-4.681-1.801-9.719-3.060-14.759-3.961-5.040-0.9-10.080-1.44-14.761-1.44-3.6 0-7.020 0.18-10.26 0.54-3.241 0.361-6.48 0.9-9.9 1.801-3.239 0.9-6.48 1.98-9.36 3.060-4.14 1.801-8.279 3.961-12.601 6.66-4.14 2.7-7.74 5.76-10.8 9.36-7.2 7.2-12.601 14.94-16.201 23.22-2.34 4.679-3.961 9.54-4.86 14.4-0.9 4.679-1.44 9.54-1.44 14.4 0 10.080 2.16 19.62 6.3 28.62 3.6 8.279 9.001 16.38 16.201 24.121 5.94 5.94 13.68 10.98 23.22 15.12 9.001 4.14 18.72 6.3 29.52 6.3s20.521-2.16 29.52-6.3c9.54-3.6 17.639-8.64 24.121-15.12 7.2-7.74 12.78-15.84 16.921-24.121 1.801-4.14 3.060-8.82 3.959-13.86s1.44-10.080 1.44-14.759c0-10.080-1.801-19.62-5.401-28.62-3.959-8.46-9.721-16.201-16.74-23.22z" fill="#1afa29" p-id="2994"></path><path d="M545.66 499.94l118.8-133.92-19.44-21.42-101.161 87.84-47.34-36.359-18.54 21.239 67.68 82.62z" fill="#1afa29" p-id="2995"></path></svg>