<?xml version="1.0" standalone="no"?><!DOCTYPE svg PUBLIC "-//W3C//DTD SVG 1.1//EN" "http://www.w3.org/Graphics/SVG/1.1/DTD/svg11.dtd"><svg t="1528181054091" class="icon" style="" viewBox="0 0 1024 1024" version="1.1" xmlns="http://www.w3.org/2000/svg" p-id="7968" xmlns:xlink="http://www.w3.org/1999/xlink" width="32" height="32"><defs><style type="text/css"></style></defs><path d="M895.751081 742.93872c-3.975545 26.977421-21.410636 35.240619-33.076326 34.894741L251.823376 777.833461c-13.078877 0.311085-27.796066-9.642614-31.722492-39.266305l-58.773592-526.33652c0 0-39.254026 0-50.906413 0-21.866007 0-39.590694-17.724687-39.590694-39.591717 0-21.866007 17.724687-39.591717 39.590694-39.591717 17.344017 0 74.067926 0 74.067926 0 19.783579 0 29.633924 9.15859 35.821857 36.246529l20.200064 88.185458 667.410536 0c22.611997 0 45.249577 22.37152 45.249577 45.2506L895.751081 742.93872zM624.3713 538.671453 624.3713 314.039369 490.12376 314.039369 490.12376 538.671453l-91.085508 0 158.209278 159.975505L715.459878 538.671453 624.3713 538.671453zM308.382533 800.456714c24.989137 0 45.249577 20.258393 45.249577 45.249577 0 24.989137-20.259416 45.248553-45.249577 45.248553-24.992207 0-45.248553-20.258393-45.248553-45.248553C263.135002 820.715107 283.391349 800.456714 308.382533 800.456714zM806.113551 800.456714c24.990161 0 45.248553 20.258393 45.248553 45.249577 0 24.989137-20.25737 45.248553-45.248553 45.248553-24.992207 0-45.248553-20.258393-45.248553-45.248553C760.864998 820.715107 781.121344 800.456714 806.113551 800.456714z" p-id="7969" fill="#1296db"></path></svg>