<?xml version="1.0" standalone="no"?><!DOCTYPE svg PUBLIC "-//W3C//DTD SVG 1.1//EN" "http://www.w3.org/Graphics/SVG/1.1/DTD/svg11.dtd"><svg t="1526632548897" class="icon" style="" viewBox="0 0 1024 1024" version="1.1" xmlns="http://www.w3.org/2000/svg" p-id="4829" xmlns:xlink="http://www.w3.org/1999/xlink" width="16" height="16"><defs><style type="text/css"></style></defs><path d="M924.677 286.182c-17.727 0-32.096-14.369-32.096-32.095 0-10.745-8.742-19.487-19.488-19.487h-722.187c-10.746 0-19.488 8.741-19.488 19.487 0 17.727-14.37 32.095-32.096 32.095s-32.096-14.369-32.096-32.095c0-46.14 37.54-83.679 83.682-83.679h722.187c46.142 0 83.682 37.539 83.682 83.679 0 17.727-14.37 32.095-32.096 32.095zM873.093 853.592h-722.187c-46.142 0-83.682-37.539-83.682-83.679 0-17.727 14.37-32.095 32.096-32.095s32.096 14.369 32.096 32.095c0 10.745 8.742 19.487 19.488 19.487h722.187c10.746 0 19.488-8.741 19.488-19.487 0-17.727 14.37-32.095 32.096-32.095s32.096 14.369 32.096 32.095c0 46.14-37.539 83.679-83.682 83.679zM179.364 648.692v-34.348h50.593v-201.432l-56.169 19.019-2.791-35.743 78.464-26.922h18.567v245.080h40.859v34.348h-129.522zM409.142 494.145c-8.311-10.679-12.495-25.543-12.495-42.267 0-47.352 36.675-82.613 90.059-82.613 52.885 0 90.488 32.038 90.488 84.953 0 39.431-19.034 68.215-62.651 105.816-15.315 13.006-36.702 33.416-55.708 54.311h122.543v34.348h-186.622v-18.57c28.335-31.557 66.838-70.090 97.034-97.926 32.954-29.711 46.437-51.985 46.437-77.529 0-30.626-20.459-50.141-52.018-50.141-31.556 0-50.592 19.98-50.592 44.562 0 10.679 3.257 20.892 10.23 31.587l-36.704 13.469zM700.234 579.052c14.881 25.993 33.915 40.392 58.965 40.392 32.488 0 54.776-20.879 54.776-51.536 0-30.162-17.638-45.941-46.407-45.941h-19.966v-34.331h19.469c24.148 0 39.493-13.005 39.493-40.841 0-25.994-18.599-42.267-45.976-42.267-23.653 0-42.252 13.934-56.636 43.181l-31.062-19.018c18.073-38.067 48.237-59.425 87.699-59.425 51.059 0 84.944 28.798 84.944 74.739 0 28.318-13.456 47.801-37.138 60.788 27.868 10.679 44.545 31.573 44.545 63.61 0 52.916-38.501 86.334-94.675 86.334-41.788 0-70.557-19.98-89.589-52.451l31.558-23.236z" p-id="4830"></path></svg>